<svg width="64" height="64" viewBox="0 0 64 64" fill="none" xmlns="http://www.w3.org/2000/svg">
  <rect width="64" height="64" rx="14" fill="#006D77"/>
  <path d="M16 24C16 20.6863 18.6863 18 22 18H45C48.3137 18 51 20.6863 51 24V45C51 48.3137 48.3137 51 45 51H19C17.3431 51 16 49.6569 16 48V24Z" fill="#FFFFFF"/>
  <path d="M16 24C16 20.6863 18.6863 18 22 18H42C43.6569 18 45 19.3431 45 21V25H21C18.2386 25 16 27.2386 16 30V24Z" fill="#83C5BE"/>
  <path d="M34 31H51V43H34C30.6863 43 28 40.3137 28 37C28 33.6863 30.6863 31 34 31Z" fill="#E76F51"/>
  <circle cx="35" cy="37" r="3" fill="#FFFFFF"/>
  <path d="M22 18H45C46.1046 18 47 18.8954 47 20V24H22C20.3431 24 19 22.6569 19 21C19 19.3431 20.3431 18 22 18Z" fill="#F5F7F6"/>
</svg>
